# xmcd
#
# Track frame offsets:
# 150
# 16820
# 30142
# 68497
# 85952
# 105680
# 129247
# 148362
# 164097
# 180792
# 210035
# 224655
# 249710
# 267912
# 288075
# 303727
#
# Disc length: 4377 seconds
#
#
# Revision: 5
# Processed by: cddbd v1.5.1PL2 Copyright (c) Steve Scherf et al.
# Submitted via: FreeRIP 2.944 
#
DISCID=db111710
DTITLE=Various Artist - Munich City Nights Vol  17 (1.Serie)
DYEAR=1900
DGENRE=
TTITLE0=Breathless - Crawl In Thru The Shadows
TTITLE1=April Wine - Say Hello
TTITLE2=Sisters of Mercy - More (Extended Version)
TTITLE3=White Wolf - Run For Your Life
TTITLE4=The Cross - Liar
TTITLE5=Corey Heart - Sunglasses at Night
TTITLE6=Robert Tepper - No Easy Way Out
TTITLE7=Stage Dolls - Wings of Steel
TTITLE8=The Fixx - Less Cities, More Moving People
TTITLE9=Pat Benatar - Love is a Battlefield (Extended Version)
TTITLE10=Patti Smith Group - Because the Night
TTITLE11=Free - All Right Now (Extended Version)
TTITLE12=Roger Daltrey - Don't Talk To Strangers
TTITLE13=Autograph - Turn up the Radio (Extended Version)
TTITLE14=Peter Emmett - Knee Deep in Love
TTITLE15=Ram Jam - Black Betty (Remix Maxi Version)
EXTD=
EXTT0=
EXTT1=
EXTT2=
EXTT3=
EXTT4=
EXTT5=
EXTT6=
EXTT7=
EXTT8=
EXTT9=
EXTT10=
EXTT11=
EXTT12=
EXTT13=
EXTT14=
EXTT15=
PLAYORDER=
